# xmcd
# 
# Track frame offsets:
#     150
#     12326
#     22036
#     35762
#     49831
#     60772
#     72919
#     84879
#     94800
#     104012
#     113182
#     123445
#     134808
#     146709
# 
# Disc length: 2133
# 
# Revision: 23
# Processed by: cddbd v1.5.2PL0 Copyright (c) Steve Scherf et al.
# Submitted via: fre:ac v1.0.31
# 
DISCID=c808530e
DTITLE=The Beatles - In Mono Disc 7  Revolver
DYEAR=1966
DGENRE=Rock/Pop
TTITLE0=Taxman (Mono)
TTITLE1=Eleanor Rigby (Mono)
TTITLE2=I'm Only Sleeping (Mono)
TTITLE3=Love You To (Mono)
TTITLE4=Here, There And Everywhere (Mono)
TTITLE5=Yellow Submarine (Mono)
TTITLE6=She Said She Said (Mono)
TTITLE7=Good Day Sunshine (Mono)
TTITLE8=And Your Bird Can Sing (Mono)
TTITLE9=For No One (Mono)
TTITLE10=Doctor Robert (Mono)
TTITLE11=I Want To Tell You (Mono)
TTITLE12=Got To Get You Into My Life (Mono)
TTITLE13=Tomorrow Never Knows (Mono)
EXTD=
EXTT0=
EXTT1=
EXTT2=
EXTT3=
EXTT4=
EXTT5=
EXTT6=
EXTT7=
EXTT8=
EXTT9=
EXTT10=
EXTT11=
EXTT12=
EXTT13=
PLAYORDER=
